<svg xmlns="http://www.w3.org/2000/svg" viewBox="0 0 36 24" role="img" aria-label="대만 국기">
  <rect width="36" height="24" fill="#fe0000"/>
  <rect width="18" height="12" fill="#000095"/>
  <!-- White sun, simplified: twelve rays plus the concentric disc -->
  <g fill="#fff">
    <path d="M9 0.8 L10.05 4.2 L9 4.2 Z M9 11.2 L7.95 7.8 L10.05 7.8 Z
             M1.6 6 L5 4.95 L5 7.05 Z M16.4 6 L13 7.05 L13 4.95 Z
             M3.76 0.76 L6.9 4.62 L5.4 5.4 Z M14.24 11.24 L11.1 7.38 L12.6 6.6 Z
             M14.24 0.76 L11.1 4.62 L12.6 5.4 Z M3.76 11.24 L6.9 7.38 L5.4 6.6 Z"/>
    <circle cx="9" cy="6" r="3.4"/>
  </g>
  <circle cx="9" cy="6" r="2.7" fill="#000095"/>
  <circle cx="9" cy="6" r="1.5" fill="#fff"/>
</svg>
