<svg xmlns="http://www.w3.org/2000/svg" viewBox="0 0 36 24" role="img" aria-label="미국 국기">
  <!-- 13 stripes (7 red / 6 white) -->
  <rect width="36" height="24" fill="#b22234"/>
  <g fill="#fff">
    <rect y="1.846" width="36" height="1.846"/>
    <rect y="5.538" width="36" height="1.846"/>
    <rect y="9.231" width="36" height="1.846"/>
    <rect y="12.923" width="36" height="1.846"/>
    <rect y="16.615" width="36" height="1.846"/>
    <rect y="20.308" width="36" height="1.846"/>
  </g>
  <!-- Canton -->
  <rect width="14.4" height="12.923" fill="#3c3b6e"/>
  <!-- Star field, simplified to a dot grid -->
  <g fill="#fff">
    <circle cx="1.8" cy="1.6" r="0.6"/><circle cx="4.6" cy="1.6" r="0.6"/><circle cx="7.4" cy="1.6" r="0.6"/><circle cx="10.2" cy="1.6" r="0.6"/><circle cx="13" cy="1.6" r="0.6"/>
    <circle cx="3.2" cy="3.8" r="0.6"/><circle cx="6" cy="3.8" r="0.6"/><circle cx="8.8" cy="3.8" r="0.6"/><circle cx="11.6" cy="3.8" r="0.6"/>
    <circle cx="1.8" cy="6" r="0.6"/><circle cx="4.6" cy="6" r="0.6"/><circle cx="7.4" cy="6" r="0.6"/><circle cx="10.2" cy="6" r="0.6"/><circle cx="13" cy="6" r="0.6"/>
    <circle cx="3.2" cy="8.2" r="0.6"/><circle cx="6" cy="8.2" r="0.6"/><circle cx="8.8" cy="8.2" r="0.6"/><circle cx="11.6" cy="8.2" r="0.6"/>
    <circle cx="1.8" cy="10.4" r="0.6"/><circle cx="4.6" cy="10.4" r="0.6"/><circle cx="7.4" cy="10.4" r="0.6"/><circle cx="10.2" cy="10.4" r="0.6"/><circle cx="13" cy="10.4" r="0.6"/>
  </g>
</svg>
